<svg width="692" height="240" viewBox="0 0 692 240" fill="none" xmlns="http://www.w3.org/2000/svg">
<path d="M16.958 214.272V231H15.398V214.272H16.958ZM23.126 214.176V214.896H9.22997V214.176H23.126ZM23.126 214.824V216.768L22.886 216.744V216.336C22.886 215.936 22.742 215.6 22.454 215.328C22.182 215.056 21.854 214.912 21.47 214.896V214.824H23.126ZM23.126 213.744V214.44L20.198 214.176C20.55 214.176 20.918 214.152 21.302 214.104C21.702 214.056 22.07 214 22.406 213.936C22.742 213.872 22.982 213.808 23.126 213.744ZM15.47 229.248V231H13.55V230.76C13.55 230.76 13.598 230.76 13.694 230.76C13.806 230.76 13.862 230.76 13.862 230.76C14.278 230.76 14.63 230.616 14.918 230.328C15.222 230.024 15.382 229.664 15.398 229.248H15.47ZM16.886 229.248H16.958C16.974 229.664 17.126 230.024 17.414 230.328C17.718 230.616 18.078 230.76 18.494 230.76C18.494 230.76 18.542 230.76 18.638 230.76C18.75 230.76 18.806 230.76 18.806 230.76V231H16.886V229.248ZM10.886 214.824V214.896C10.486 214.912 10.15 215.056 9.87797 215.328C9.60597 215.6 9.46997 215.936 9.46997 216.336V216.744L9.22997 216.768V214.824H10.886ZM9.22997 213.744C9.38997 213.808 9.62997 213.872 9.94997 213.936C10.286 214 10.654 214.056 11.054 214.104C11.454 214.152 11.822 214.176 12.158 214.176L9.22997 214.44V213.744ZM34.9139 214.2V231H33.3539V214.2H34.9139ZM41.3939 230.256V231H34.8419V230.256H41.3939ZM40.3619 222.36V223.08H34.8419V222.36H40.3619ZM41.3939 214.2V214.944H34.8419V214.2H41.3939ZM42.8579 227.112L41.4659 231H37.4819L38.3459 230.256C39.1939 230.256 39.8819 230.128 40.4099 229.872C40.9539 229.6 41.3939 229.224 41.7299 228.744C42.0659 228.264 42.3619 227.72 42.6179 227.112H42.8579ZM40.3619 223.032V224.616H40.1219V224.256C40.1219 223.936 40.0099 223.664 39.7859 223.44C39.5619 223.2 39.2899 223.08 38.9699 223.08V223.032H40.3619ZM40.3619 220.824V222.408H38.9699V222.36C39.2899 222.344 39.5619 222.224 39.7859 222C40.0099 221.76 40.1219 221.48 40.1219 221.16V220.824H40.3619ZM41.3939 214.872V216.792H41.1539V216.36C41.1539 215.976 41.0179 215.648 40.7459 215.376C40.4739 215.088 40.1379 214.936 39.7379 214.92V214.872H41.3939ZM41.3939 213.768V214.464L38.4659 214.2C38.8179 214.2 39.1859 214.176 39.5699 214.128C39.9699 214.08 40.3379 214.024 40.6739 213.96C41.0099 213.896 41.2499 213.832 41.3939 213.768ZM33.4259 229.248V231H31.5059V230.76C31.5059 230.76 31.5539 230.76 31.6499 230.76C31.7619 230.76 31.8179 230.76 31.8179 230.76C32.2339 230.76 32.5859 230.616 32.8739 230.328C33.1779 230.024 33.3379 229.664 33.3539 229.248H33.4259ZM33.4259 215.952H33.3539C33.3539 215.536 33.2019 215.184 32.8979 214.896C32.5939 214.592 32.2339 214.44 31.8179 214.44C31.8179 214.44 31.7699 214.44 31.6739 214.44C31.5779 214.44 31.5299 214.44 31.5299 214.44L31.5059 214.2H33.4259V215.952ZM66.9687 223.992L66.6807 227.76C66.2647 228.448 65.7367 229.064 65.0967 229.608C64.4727 230.136 63.7287 230.56 62.8647 230.88C62.0167 231.184 61.0407 231.336 59.9367 231.336C58.2727 231.32 56.7927 230.952 55.4967 230.232C54.2007 229.512 53.1847 228.504 52.4487 227.208C51.7287 225.896 51.3687 224.352 51.3687 222.576C51.3687 220.832 51.7287 219.312 52.4487 218.016C53.1687 216.704 54.1767 215.688 55.4727 214.968C56.7847 214.232 58.3207 213.864 60.0807 213.864C61.2647 213.864 62.3287 214.024 63.2727 214.344C64.2327 214.648 65.0647 215.032 65.7687 215.496L66.2487 218.88H66.0327C65.6807 217.472 64.9607 216.408 63.8727 215.688C62.7847 214.952 61.5207 214.584 60.0807 214.584C58.6727 214.584 57.4487 214.92 56.4087 215.592C55.3847 216.248 54.5847 217.176 54.0087 218.376C53.4487 219.56 53.1687 220.952 53.1687 222.552C53.1687 224.152 53.4487 225.552 54.0087 226.752C54.5847 227.952 55.3767 228.888 56.3847 229.56C57.4087 230.232 58.5927 230.584 59.9367 230.616C61.0727 230.616 62.1207 230.408 63.0807 229.992C64.0567 229.56 64.8727 228.864 65.5287 227.904C66.1847 226.928 66.6007 225.624 66.7767 223.992H66.9687ZM77.6671 213.84L91.6111 228.72L91.8271 231.336L77.8831 216.48L77.6671 213.84ZM77.7151 229.296V231H75.7231V230.76C75.7231 230.76 75.7951 230.76 75.9391 230.76C76.0831 230.76 76.1631 230.76 76.1791 230.76C76.5791 230.76 76.9231 230.616 77.2111 230.328C77.4991 230.04 77.6431 229.696 77.6431 229.296H77.7151ZM78.7471 229.296C78.7471 229.696 78.8911 230.04 79.1791 230.328C79.4671 230.616 79.8111 230.76 80.2111 230.76C80.2271 230.76 80.3071 230.76 80.4511 230.76C80.5951 230.76 80.6671 230.76 80.6671 230.76V231H78.6751V229.296H78.7471ZM77.6671 213.84L78.7231 215.184L78.7471 231H77.6431V216.84C77.6431 216.024 77.6031 215.32 77.5231 214.728C77.4591 214.136 77.4271 213.84 77.4271 213.84H77.6671ZM91.8271 214.2V228.264C91.8271 228.776 91.8431 229.272 91.8751 229.752C91.9071 230.216 91.9391 230.6 91.9711 230.904C92.0191 231.192 92.0431 231.336 92.0431 231.336H91.8271L90.7471 230.064V214.2H91.8271ZM93.7471 214.2V214.44C93.7471 214.44 93.6751 214.44 93.5311 214.44C93.3871 214.44 93.3151 214.44 93.3151 214.44C92.9151 214.44 92.5711 214.584 92.2831 214.872C91.9951 215.144 91.8431 215.488 91.8271 215.904H91.7551V214.2H93.7471ZM88.8031 214.2H90.7951V215.904H90.7471C90.7311 215.488 90.5791 215.144 90.2911 214.872C90.0191 214.584 89.6751 214.44 89.2591 214.44C89.2591 214.44 89.1871 214.44 89.0431 214.44C88.8991 214.44 88.8191 214.44 88.8031 214.44V214.2ZM111.13 213.864C112.842 213.864 114.346 214.232 115.642 214.968C116.938 215.688 117.946 216.704 118.666 218.016C119.402 219.328 119.77 220.856 119.77 222.6C119.77 224.344 119.402 225.872 118.666 227.184C117.946 228.496 116.938 229.52 115.642 230.256C114.346 230.976 112.842 231.336 111.13 231.336C109.434 231.336 107.938 230.976 106.642 230.256C105.346 229.52 104.33 228.496 103.594 227.184C102.874 225.872 102.514 224.344 102.514 222.6C102.514 220.856 102.874 219.328 103.594 218.016C104.33 216.704 105.346 215.688 106.642 214.968C107.938 214.232 109.434 213.864 111.13 213.864ZM111.13 230.616C112.49 230.616 113.674 230.28 114.682 229.608C115.706 228.936 116.498 228 117.058 226.8C117.634 225.6 117.922 224.2 117.922 222.6C117.922 221 117.634 219.6 117.058 218.4C116.498 217.2 115.706 216.264 114.682 215.592C113.674 214.92 112.49 214.584 111.13 214.584C109.786 214.584 108.602 214.92 107.578 215.592C106.57 216.264 105.778 217.2 105.202 218.4C104.642 219.6 104.362 221 104.362 222.6C104.362 224.2 104.642 225.6 105.202 226.8C105.778 228 106.57 228.936 107.578 229.608C108.602 230.28 109.786 230.616 111.13 230.616ZM131.803 214.2V231H130.243V214.2H131.803ZM138.283 230.256V231H131.731V230.256H138.283ZM139.747 227.112L138.355 231H134.371L135.235 230.256C136.083 230.256 136.771 230.128 137.299 229.872C137.843 229.6 138.283 229.224 138.619 228.744C138.955 228.264 139.251 227.72 139.507 227.112H139.747ZM130.315 229.248V231H128.395V230.76C128.395 230.76 128.443 230.76 128.539 230.76C128.651 230.76 128.707 230.76 128.707 230.76C129.123 230.76 129.475 230.616 129.763 230.328C130.067 230.024 130.227 229.664 130.243 229.248H130.315ZM130.315 215.952H130.243C130.227 215.536 130.067 215.184 129.763 214.896C129.475 214.592 129.123 214.44 128.707 214.44C128.707 214.44 128.651 214.44 128.539 214.44C128.443 214.44 128.395 214.44 128.395 214.44V214.2H130.315V215.952ZM131.731 215.952V214.2H133.651V214.44C133.635 214.44 133.579 214.44 133.483 214.44C133.387 214.44 133.339 214.44 133.339 214.44C132.923 214.44 132.563 214.592 132.259 214.896C131.971 215.184 131.819 215.536 131.803 215.952H131.731ZM156.738 213.864C158.45 213.864 159.954 214.232 161.25 214.968C162.546 215.688 163.554 216.704 164.274 218.016C165.01 219.328 165.378 220.856 165.378 222.6C165.378 224.344 165.01 225.872 164.274 227.184C163.554 228.496 162.546 229.52 161.25 230.256C159.954 230.976 158.45 231.336 156.738 231.336C155.042 231.336 153.546 230.976 152.25 230.256C150.954 229.52 149.938 228.496 149.202 227.184C148.482 225.872 148.122 224.344 148.122 222.6C148.122 220.856 148.482 219.328 149.202 218.016C149.938 216.704 150.954 215.688 152.25 214.968C153.546 214.232 155.042 213.864 156.738 213.864ZM156.738 230.616C158.098 230.616 159.282 230.28 160.29 229.608C161.314 228.936 162.106 228 162.666 226.8C163.242 225.6 163.53 224.2 163.53 222.6C163.53 221 163.242 219.6 162.666 218.4C162.106 217.2 161.314 216.264 160.29 215.592C159.282 214.92 158.098 214.584 156.738 214.584C155.394 214.584 154.21 214.92 153.186 215.592C152.178 216.264 151.386 217.2 150.81 218.4C150.25 219.6 149.97 221 149.97 222.6C149.97 224.2 150.25 225.6 150.81 226.8C151.386 228 152.178 228.936 153.186 229.608C154.21 230.28 155.394 230.616 156.738 230.616ZM190.048 224.28V228.24C189.68 228.72 189.184 229.2 188.56 229.68C187.936 230.16 187.168 230.56 186.256 230.88C185.36 231.184 184.304 231.336 183.088 231.336C181.392 231.32 179.896 230.952 178.6 230.232C177.304 229.496 176.288 228.48 175.552 227.184C174.832 225.872 174.472 224.344 174.472 222.6C174.472 220.856 174.832 219.328 175.552 218.016C176.288 216.704 177.304 215.688 178.6 214.968C179.896 214.232 181.392 213.864 183.088 213.864C183.968 213.864 184.76 213.936 185.464 214.08C186.168 214.224 186.8 214.424 187.36 214.68C187.936 214.92 188.456 215.192 188.92 215.496L189.4 218.88H189.184C188.944 217.952 188.544 217.176 187.984 216.552C187.44 215.912 186.752 215.424 185.92 215.088C185.088 214.752 184.144 214.584 183.088 214.584C181.744 214.584 180.56 214.92 179.536 215.592C178.512 216.264 177.712 217.2 177.136 218.4C176.56 219.6 176.272 221 176.272 222.6C176.272 224.2 176.56 225.6 177.136 226.8C177.712 228 178.512 228.936 179.536 229.608C180.56 230.264 181.744 230.6 183.088 230.616C183.792 230.616 184.464 230.536 185.104 230.376C185.76 230.2 186.376 229.96 186.952 229.656C187.528 229.336 188.04 228.96 188.488 228.528L188.512 224.28C188.512 223.56 188.104 223.2 187.288 223.2H186.904V222.96H191.608V223.2H191.248C190.416 223.2 190.016 223.56 190.048 224.28ZM202.899 214.2V231H201.339V214.2H202.899ZM201.411 229.248V231H199.491V230.76C199.491 230.76 199.539 230.76 199.635 230.76C199.747 230.76 199.803 230.76 199.803 230.76C200.219 230.76 200.571 230.616 200.859 230.328C201.163 230.024 201.323 229.664 201.339 229.248H201.411ZM201.411 215.952H201.339C201.323 215.536 201.163 215.184 200.859 214.896C200.571 214.592 200.219 214.44 199.803 214.44C199.803 214.44 199.747 214.44 199.635 214.44C199.539 214.44 199.491 214.44 199.491 214.44V214.2H201.411V215.952ZM202.827 229.248H202.899C202.915 229.664 203.067 230.024 203.355 230.328C203.659 230.616 204.019 230.76 204.435 230.76C204.435 230.76 204.483 230.76 204.579 230.76C204.675 230.76 204.731 230.76 204.747 230.76V231H202.827V229.248ZM202.827 215.952V214.2H204.747V214.44C204.731 214.44 204.675 214.44 204.579 214.44C204.483 214.44 204.435 214.44 204.435 214.44C204.019 214.44 203.659 214.592 203.355 214.896C203.067 215.184 202.915 215.536 202.899 215.952H202.827ZM221.256 213.864L228.36 230.856H226.32L220.776 216.144L221.256 213.864ZM216.096 229.248C215.984 229.568 215.968 229.84 216.048 230.064C216.128 230.288 216.256 230.464 216.432 230.592C216.624 230.704 216.816 230.76 217.008 230.76H217.224V231H212.4V230.76C212.4 230.76 212.44 230.76 212.52 230.76C212.584 230.76 212.616 230.76 212.616 230.76C212.984 230.76 213.36 230.648 213.744 230.424C214.144 230.184 214.472 229.792 214.728 229.248H216.096ZM221.256 213.864L221.472 215.544L215.448 230.928H214.008L220.152 216.336C220.152 216.336 220.192 216.24 220.272 216.048C220.368 215.84 220.472 215.592 220.584 215.304C220.712 215.016 220.816 214.736 220.896 214.464C220.992 214.192 221.04 213.992 221.04 213.864H221.256ZM224.64 224.448V225.168H217.128V224.448H224.64ZM225.72 229.248H227.688C227.928 229.792 228.248 230.184 228.648 230.424C229.048 230.648 229.432 230.76 229.8 230.76C229.8 230.76 229.832 230.76 229.896 230.76C229.96 230.76 229.992 230.76 229.992 230.76V231H224.592V230.76H224.808C225.112 230.76 225.384 230.632 225.624 230.376C225.864 230.104 225.896 229.728 225.72 229.248ZM258.478 231.336L258.718 230.712C259.006 230.712 259.382 230.768 259.846 230.88C260.326 230.992 260.878 231.144 261.502 231.336C262.126 231.544 262.814 231.792 263.566 232.08C264.334 232.368 265.15 232.688 266.014 233.04C266.878 233.392 267.79 233.776 268.75 234.192C269.646 234.576 270.614 234.856 271.654 235.032C272.71 235.224 273.774 235.288 274.846 235.224C275.918 235.16 276.934 234.944 277.894 234.576C278.87 234.224 279.726 233.704 280.462 233.016L280.558 233.136C280.446 233.44 280.174 233.808 279.742 234.24C279.326 234.688 278.766 235.112 278.062 235.512C277.358 235.928 276.526 236.248 275.566 236.472C274.622 236.712 273.558 236.784 272.374 236.688C271.206 236.592 269.934 236.248 268.558 235.656C267.822 235.336 267.038 234.96 266.206 234.528C265.374 234.096 264.518 233.664 263.638 233.232C262.758 232.8 261.878 232.408 260.998 232.056C260.134 231.72 259.294 231.48 258.478 231.336ZM258.742 213.864C260.438 213.864 261.926 214.232 263.206 214.968C264.502 215.688 265.51 216.704 266.23 218.016C266.966 219.328 267.334 220.856 267.334 222.6C267.334 224.344 266.966 225.872 266.23 227.184C265.51 228.496 264.502 229.52 263.206 230.256C261.91 230.976 260.422 231.336 258.742 231.336C257.046 231.336 255.55 230.976 254.254 230.256C252.958 229.52 251.942 228.496 251.206 227.184C250.486 225.872 250.126 224.344 250.126 222.6C250.126 220.856 250.486 219.328 251.206 218.016C251.942 216.704 252.958 215.688 254.254 214.968C255.55 214.232 257.046 213.864 258.742 213.864ZM258.742 230.616C260.102 230.616 261.286 230.28 262.294 229.608C263.318 228.936 264.11 228 264.67 226.8C265.246 225.6 265.534 224.2 265.534 222.6C265.534 221 265.246 219.6 264.67 218.4C264.11 217.2 263.318 216.264 262.294 215.592C261.286 214.92 260.102 214.584 258.742 214.584C257.382 214.584 256.19 214.92 255.166 215.592C254.142 216.264 253.342 217.2 252.766 218.4C252.206 219.6 251.926 221 251.926 222.6C251.926 224.2 252.214 225.6 252.79 226.8C253.366 228 254.166 228.936 255.19 229.608C256.214 230.28 257.398 230.616 258.742 230.616ZM279.317 214.2V224.76C279.317 225.912 279.525 226.928 279.941 227.808C280.373 228.688 280.973 229.376 281.741 229.872C282.509 230.352 283.397 230.592 284.405 230.592C285.477 230.592 286.413 230.36 287.213 229.896C288.013 229.432 288.637 228.792 289.085 227.976C289.533 227.144 289.757 226.176 289.757 225.072V214.2H290.885V225.072C290.885 226.32 290.613 227.416 290.069 228.36C289.541 229.288 288.789 230.016 287.813 230.544C286.837 231.072 285.701 231.336 284.405 231.336C283.077 231.336 281.909 231.08 280.901 230.568C279.909 230.04 279.133 229.312 278.573 228.384C278.029 227.44 277.757 226.344 277.757 225.096V214.2H279.317ZM277.829 214.2V215.64H277.757C277.757 215.288 277.629 215 277.373 214.776C277.133 214.552 276.837 214.44 276.485 214.44C276.485 214.44 276.421 214.44 276.293 214.44C276.165 214.44 276.101 214.44 276.101 214.44V214.2H277.829ZM280.973 214.2V214.44C280.973 214.44 280.909 214.44 280.781 214.44C280.653 214.44 280.589 214.44 280.589 214.44C280.237 214.44 279.933 214.552 279.677 214.776C279.437 215 279.317 215.288 279.317 215.64H279.269V214.2H280.973ZM289.829 214.2V215.64H289.757C289.757 215.288 289.629 215 289.373 214.776C289.133 214.552 288.837 214.44 288.485 214.44C288.485 214.44 288.421 214.44 288.293 214.44C288.165 214.44 288.101 214.44 288.101 214.44V214.2H289.829ZM292.541 214.2V214.44C292.541 214.44 292.477 214.44 292.349 214.44C292.221 214.44 292.157 214.44 292.157 214.44C291.805 214.44 291.501 214.552 291.245 214.776C291.005 215 290.885 215.288 290.885 215.64H290.837V214.2H292.541ZM304.768 214.2V231H303.208V214.2H304.768ZM311.248 230.256V231H304.696V230.256H311.248ZM310.216 222.36V223.08H304.696V222.36H310.216ZM311.248 214.2V214.944H304.696V214.2H311.248ZM312.712 227.112L311.32 231H307.336L308.2 230.256C309.048 230.256 309.736 230.128 310.264 229.872C310.808 229.6 311.248 229.224 311.584 228.744C311.92 228.264 312.216 227.72 312.472 227.112H312.712ZM310.216 223.032V224.616H309.976V224.256C309.976 223.936 309.864 223.664 309.64 223.44C309.416 223.2 309.144 223.08 308.824 223.08V223.032H310.216ZM310.216 220.824V222.408H308.824V222.36C309.144 222.344 309.416 222.224 309.64 222C309.864 221.76 309.976 221.48 309.976 221.16V220.824H310.216ZM311.248 214.872V216.792H311.008V216.36C311.008 215.976 310.872 215.648 310.6 215.376C310.328 215.088 309.992 214.936 309.592 214.92V214.872H311.248ZM311.248 213.768V214.464L308.32 214.2C308.672 214.2 309.04 214.176 309.424 214.128C309.824 214.08 310.192 214.024 310.528 213.96C310.864 213.896 311.104 213.832 311.248 213.768ZM303.28 229.248V231H301.36V230.76C301.36 230.76 301.408 230.76 301.504 230.76C301.616 230.76 301.672 230.76 301.672 230.76C302.088 230.76 302.44 230.616 302.728 230.328C303.032 230.024 303.192 229.664 303.208 229.248H303.28ZM303.28 215.952H303.208C303.208 215.536 303.056 215.184 302.752 214.896C302.448 214.592 302.088 214.44 301.672 214.44C301.672 214.44 301.624 214.44 301.528 214.44C301.432 214.44 301.384 214.44 301.384 214.44L301.36 214.2H303.28V215.952ZM349.771 223.992L349.483 227.76C349.067 228.448 348.539 229.064 347.899 229.608C347.275 230.136 346.531 230.56 345.667 230.88C344.819 231.184 343.843 231.336 342.739 231.336C341.075 231.32 339.595 230.952 338.299 230.232C337.003 229.512 335.987 228.504 335.251 227.208C334.531 225.896 334.171 224.352 334.171 222.576C334.171 220.832 334.531 219.312 335.251 218.016C335.971 216.704 336.979 215.688 338.275 214.968C339.587 214.232 341.123 213.864 342.883 213.864C344.067 213.864 345.131 214.024 346.075 214.344C347.035 214.648 347.867 215.032 348.571 215.496L349.051 218.88H348.835C348.483 217.472 347.763 216.408 346.675 215.688C345.587 214.952 344.323 214.584 342.883 214.584C341.475 214.584 340.251 214.92 339.211 215.592C338.187 216.248 337.387 217.176 336.811 218.376C336.251 219.56 335.971 220.952 335.971 222.552C335.971 224.152 336.251 225.552 336.811 226.752C337.387 227.952 338.179 228.888 339.187 229.56C340.211 230.232 341.395 230.584 342.739 230.616C343.875 230.616 344.923 230.408 345.883 229.992C346.859 229.56 347.675 228.864 348.331 227.904C348.987 226.928 349.403 225.624 349.579 223.992H349.771ZM367.742 213.864C369.454 213.864 370.958 214.232 372.254 214.968C373.55 215.688 374.558 216.704 375.278 218.016C376.014 219.328 376.382 220.856 376.382 222.6C376.382 224.344 376.014 225.872 375.278 227.184C374.558 228.496 373.55 229.52 372.254 230.256C370.958 230.976 369.454 231.336 367.742 231.336C366.046 231.336 364.55 230.976 363.254 230.256C361.958 229.52 360.942 228.496 360.206 227.184C359.486 225.872 359.126 224.344 359.126 222.6C359.126 220.856 359.486 219.328 360.206 218.016C360.942 216.704 361.958 215.688 363.254 214.968C364.55 214.232 366.046 213.864 367.742 213.864ZM367.742 230.616C369.102 230.616 370.286 230.28 371.294 229.608C372.318 228.936 373.11 228 373.67 226.8C374.246 225.6 374.534 224.2 374.534 222.6C374.534 221 374.246 219.6 373.67 218.4C373.11 217.2 372.318 216.264 371.294 215.592C370.286 214.92 369.102 214.584 367.742 214.584C366.398 214.584 365.214 214.92 364.19 215.592C363.182 216.264 362.39 217.2 361.814 218.4C361.254 219.6 360.974 221 360.974 222.6C360.974 224.2 361.254 225.6 361.814 226.8C362.39 228 363.182 228.936 364.19 229.608C365.214 230.28 366.398 230.616 367.742 230.616ZM386.59 213.84L400.534 228.72L400.75 231.336L386.806 216.48L386.59 213.84ZM386.638 229.296V231H384.646V230.76C384.646 230.76 384.718 230.76 384.862 230.76C385.006 230.76 385.086 230.76 385.102 230.76C385.502 230.76 385.846 230.616 386.134 230.328C386.422 230.04 386.566 229.696 386.566 229.296H386.638ZM387.67 229.296C387.67 229.696 387.814 230.04 388.102 230.328C388.39 230.616 388.734 230.76 389.134 230.76C389.15 230.76 389.23 230.76 389.374 230.76C389.518 230.76 389.59 230.76 389.59 230.76V231H387.598V229.296H387.67ZM386.59 213.84L387.646 215.184L387.67 231H386.566V216.84C386.566 216.024 386.526 215.32 386.446 214.728C386.382 214.136 386.35 213.84 386.35 213.84H386.59ZM400.75 214.2V228.264C400.75 228.776 400.766 229.272 400.798 229.752C400.83 230.216 400.862 230.6 400.894 230.904C400.942 231.192 400.966 231.336 400.966 231.336H400.75L399.67 230.064V214.2H400.75ZM402.67 214.2V214.44C402.67 214.44 402.598 214.44 402.454 214.44C402.31 214.44 402.238 214.44 402.238 214.44C401.838 214.44 401.494 214.584 401.206 214.872C400.918 215.144 400.766 215.488 400.75 215.904H400.678V214.2H402.67ZM397.726 214.2H399.718V215.904H399.67C399.654 215.488 399.502 215.144 399.214 214.872C398.942 214.584 398.598 214.44 398.182 214.44C398.182 214.44 398.11 214.44 397.966 214.44C397.822 214.44 397.742 214.44 397.726 214.44V214.2ZM414.84 214.2V231H413.28V214.2H414.84ZM421.32 230.256V231H414.768V230.256H421.32ZM420.288 222.36V223.08H414.768V222.36H420.288ZM421.32 214.2V214.944H414.768V214.2H421.32ZM422.784 227.112L421.392 231H417.408L418.272 230.256C419.12 230.256 419.808 230.128 420.336 229.872C420.88 229.6 421.32 229.224 421.656 228.744C421.992 228.264 422.288 227.72 422.544 227.112H422.784ZM420.288 223.032V224.616H420.048V224.256C420.048 223.936 419.936 223.664 419.712 223.44C419.488 223.2 419.216 223.08 418.896 223.08V223.032H420.288ZM420.288 220.824V222.408H418.896V222.36C419.216 222.344 419.488 222.224 419.712 222C419.936 221.76 420.048 221.48 420.048 221.16V220.824H420.288ZM421.32 214.872V216.792H421.08V216.36C421.08 215.976 420.944 215.648 420.672 215.376C420.4 215.088 420.064 214.936 419.664 214.92V214.872H421.32ZM421.32 213.768V214.464L418.392 214.2C418.744 214.2 419.112 214.176 419.496 214.128C419.896 214.08 420.264 214.024 420.6 213.96C420.936 213.896 421.176 213.832 421.32 213.768ZM413.352 229.248V231H411.432V230.76C411.432 230.76 411.48 230.76 411.576 230.76C411.688 230.76 411.744 230.76 411.744 230.76C412.16 230.76 412.512 230.616 412.8 230.328C413.104 230.024 413.264 229.664 413.28 229.248H413.352ZM413.352 215.952H413.28C413.28 215.536 413.128 215.184 412.824 214.896C412.52 214.592 412.16 214.44 411.744 214.44C411.744 214.44 411.696 214.44 411.6 214.44C411.504 214.44 411.456 214.44 411.456 214.44L411.432 214.2H413.352V215.952ZM446.894 223.992L446.606 227.76C446.19 228.448 445.662 229.064 445.022 229.608C444.398 230.136 443.654 230.56 442.79 230.88C441.942 231.184 440.966 231.336 439.862 231.336C438.198 231.32 436.718 230.952 435.422 230.232C434.126 229.512 433.11 228.504 432.374 227.208C431.654 225.896 431.294 224.352 431.294 222.576C431.294 220.832 431.654 219.312 432.374 218.016C433.094 216.704 434.102 215.688 435.398 214.968C436.71 214.232 438.246 213.864 440.006 213.864C441.19 213.864 442.254 214.024 443.198 214.344C444.158 214.648 444.99 215.032 445.694 215.496L446.174 218.88H445.958C445.606 217.472 444.886 216.408 443.798 215.688C442.71 214.952 441.446 214.584 440.006 214.584C438.598 214.584 437.374 214.92 436.334 215.592C435.31 216.248 434.51 217.176 433.934 218.376C433.374 219.56 433.094 220.952 433.094 222.552C433.094 224.152 433.374 225.552 433.934 226.752C434.51 227.952 435.302 228.888 436.31 229.56C437.334 230.232 438.518 230.584 439.862 230.616C440.998 230.616 442.046 230.408 443.006 229.992C443.982 229.56 444.798 228.864 445.454 227.904C446.11 226.928 446.526 225.624 446.702 223.992H446.894ZM462.777 214.272V231H461.217V214.272H462.777ZM468.945 214.176V214.896H455.049V214.176H468.945ZM468.945 214.824V216.768L468.705 216.744V216.336C468.705 215.936 468.561 215.6 468.273 215.328C468.001 215.056 467.673 214.912 467.289 214.896V214.824H468.945ZM468.945 213.744V214.44L466.017 214.176C466.369 214.176 466.737 214.152 467.121 214.104C467.521 214.056 467.889 214 468.225 213.936C468.561 213.872 468.801 213.808 468.945 213.744ZM461.289 229.248V231H459.369V230.76C459.369 230.76 459.417 230.76 459.513 230.76C459.625 230.76 459.681 230.76 459.681 230.76C460.097 230.76 460.449 230.616 460.737 230.328C461.041 230.024 461.201 229.664 461.217 229.248H461.289ZM462.705 229.248H462.777C462.793 229.664 462.945 230.024 463.233 230.328C463.537 230.616 463.897 230.76 464.313 230.76C464.313 230.76 464.361 230.76 464.457 230.76C464.569 230.76 464.625 230.76 464.625 230.76V231H462.705V229.248ZM456.705 214.824V214.896C456.305 214.912 455.969 215.056 455.697 215.328C455.425 215.6 455.289 215.936 455.289 216.336V216.744L455.049 216.768V214.824H456.705ZM455.049 213.744C455.209 213.808 455.449 213.872 455.769 213.936C456.105 214 456.473 214.056 456.873 214.104C457.273 214.152 457.641 214.176 457.977 214.176L455.049 214.44V213.744ZM482.813 213.864L489.917 230.856H487.877L482.333 216.144L482.813 213.864ZM477.653 229.248C477.541 229.568 477.525 229.84 477.605 230.064C477.685 230.288 477.813 230.464 477.989 230.592C478.181 230.704 478.373 230.76 478.565 230.76H478.781V231H473.957V230.76C473.957 230.76 473.997 230.76 474.077 230.76C474.141 230.76 474.173 230.76 474.173 230.76C474.541 230.76 474.917 230.648 475.301 230.424C475.701 230.184 476.029 229.792 476.285 229.248H477.653ZM482.813 213.864L483.029 215.544L477.005 230.928H475.565L481.709 216.336C481.709 216.336 481.749 216.24 481.829 216.048C481.925 215.84 482.029 215.592 482.141 215.304C482.269 215.016 482.373 214.736 482.453 214.464C482.549 214.192 482.597 213.992 482.597 213.864H482.813ZM486.197 224.448V225.168H478.685V224.448H486.197ZM487.277 229.248H489.245C489.485 229.792 489.805 230.184 490.205 230.424C490.605 230.648 490.989 230.76 491.357 230.76C491.357 230.76 491.389 230.76 491.453 230.76C491.517 230.76 491.549 230.76 491.549 230.76V231H486.149V230.76H486.365C486.669 230.76 486.941 230.632 487.181 230.376C487.421 230.104 487.453 229.728 487.277 229.248ZM515.091 214.2V231H513.531V214.2H515.091ZM521.571 230.256V231H515.019V230.256H521.571ZM520.539 222.36V223.08H515.019V222.36H520.539ZM521.571 214.2V214.944H515.019V214.2H521.571ZM523.035 227.112L521.643 231H517.659L518.523 230.256C519.371 230.256 520.059 230.128 520.587 229.872C521.131 229.6 521.571 229.224 521.907 228.744C522.243 228.264 522.539 227.72 522.795 227.112H523.035ZM520.539 223.032V224.616H520.299V224.256C520.299 223.936 520.187 223.664 519.963 223.44C519.739 223.2 519.467 223.08 519.147 223.08V223.032H520.539ZM520.539 220.824V222.408H519.147V222.36C519.467 222.344 519.739 222.224 519.963 222C520.187 221.76 520.299 221.48 520.299 221.16V220.824H520.539ZM521.571 214.872V216.792H521.331V216.36C521.331 215.976 521.195 215.648 520.923 215.376C520.651 215.088 520.315 214.936 519.915 214.92V214.872H521.571ZM521.571 213.768V214.464L518.643 214.2C518.995 214.2 519.363 214.176 519.747 214.128C520.147 214.08 520.515 214.024 520.851 213.96C521.187 213.896 521.427 213.832 521.571 213.768ZM513.603 229.248V231H511.683V230.76C511.683 230.76 511.731 230.76 511.827 230.76C511.939 230.76 511.995 230.76 511.995 230.76C512.411 230.76 512.763 230.616 513.051 230.328C513.355 230.024 513.515 229.664 513.531 229.248H513.603ZM513.603 215.952H513.531C513.531 215.536 513.379 215.184 513.075 214.896C512.771 214.592 512.411 214.44 511.995 214.44C511.995 214.44 511.947 214.44 511.851 214.44C511.755 214.44 511.707 214.44 511.707 214.44L511.683 214.2H513.603V215.952ZM536.599 213.864C536.855 213.864 537.127 213.88 537.415 213.912C537.719 213.944 538.007 213.992 538.279 214.056C538.567 214.104 538.823 214.16 539.047 214.224C539.287 214.272 539.471 214.328 539.599 214.392V217.056H539.383C539.383 216.288 539.119 215.688 538.591 215.256C538.063 214.808 537.423 214.584 536.671 214.584C535.791 214.584 535.079 214.864 534.535 215.424C533.991 215.968 533.719 216.608 533.719 217.344C533.719 217.648 533.783 218.008 533.911 218.424C534.055 218.824 534.311 219.2 534.679 219.552L539.407 223.92C539.887 224.368 540.207 224.848 540.367 225.36C540.527 225.872 540.607 226.368 540.607 226.848C540.607 228.176 540.199 229.256 539.383 230.088C538.583 230.92 537.495 231.336 536.119 231.336C535.735 231.336 535.279 231.296 534.751 231.216C534.239 231.136 533.735 231 533.239 230.808C532.759 230.6 532.359 230.336 532.039 230.016C531.991 229.76 531.967 229.44 531.967 229.056C531.967 228.672 531.999 228.272 532.063 227.856C532.127 227.424 532.215 227.032 532.327 226.68H532.543C532.463 227.496 532.567 228.208 532.855 228.816C533.143 229.424 533.559 229.888 534.103 230.208C534.663 230.512 535.295 230.648 535.999 230.616C536.879 230.568 537.631 230.264 538.255 229.704C538.895 229.128 539.215 228.36 539.215 227.4C539.215 226.936 539.135 226.52 538.975 226.152C538.815 225.768 538.583 225.44 538.279 225.168L533.671 220.896C533.191 220.448 532.855 219.96 532.663 219.432C532.471 218.888 532.375 218.384 532.375 217.92C532.375 217.248 532.535 216.6 532.855 215.976C533.175 215.352 533.647 214.848 534.271 214.464C534.911 214.064 535.687 213.864 536.599 213.864ZM539.599 214.104V214.608H537.775V214.104H539.599ZM554.469 213.864C554.725 213.864 554.997 213.88 555.285 213.912C555.589 213.944 555.877 213.992 556.149 214.056C556.437 214.104 556.693 214.16 556.917 214.224C557.157 214.272 557.341 214.328 557.469 214.392V217.056H557.253C557.253 216.288 556.989 215.688 556.461 215.256C555.933 214.808 555.293 214.584 554.541 214.584C553.661 214.584 552.949 214.864 552.405 215.424C551.861 215.968 551.589 216.608 551.589 217.344C551.589 217.648 551.653 218.008 551.781 218.424C551.925 218.824 552.181 219.2 552.549 219.552L557.277 223.92C557.757 224.368 558.077 224.848 558.237 225.36C558.397 225.872 558.477 226.368 558.477 226.848C558.477 228.176 558.069 229.256 557.253 230.088C556.453 230.92 555.365 231.336 553.989 231.336C553.605 231.336 553.149 231.296 552.621 231.216C552.109 231.136 551.605 231 551.109 230.808C550.629 230.6 550.229 230.336 549.909 230.016C549.861 229.76 549.837 229.44 549.837 229.056C549.837 228.672 549.869 228.272 549.933 227.856C549.997 227.424 550.085 227.032 550.197 226.68H550.413C550.333 227.496 550.437 228.208 550.725 228.816C551.013 229.424 551.429 229.888 551.973 230.208C552.533 230.512 553.165 230.648 553.869 230.616C554.749 230.568 555.501 230.264 556.125 229.704C556.765 229.128 557.085 228.36 557.085 227.4C557.085 226.936 557.005 226.52 556.845 226.152C556.685 225.768 556.453 225.44 556.149 225.168L551.541 220.896C551.061 220.448 550.725 219.96 550.533 219.432C550.341 218.888 550.245 218.384 550.245 217.92C550.245 217.248 550.405 216.6 550.725 215.976C551.045 215.352 551.517 214.848 552.141 214.464C552.781 214.064 553.557 213.864 554.469 213.864ZM557.469 214.104V214.608H555.645V214.104H557.469ZM571.164 214.2V231H569.604V214.2H571.164ZM577.644 230.256V231H571.092V230.256H577.644ZM576.612 222.36V223.08H571.092V222.36H576.612ZM577.644 214.2V214.944H571.092V214.2H577.644ZM579.108 227.112L577.716 231H573.732L574.596 230.256C575.444 230.256 576.132 230.128 576.66 229.872C577.204 229.6 577.644 229.224 577.98 228.744C578.316 228.264 578.612 227.72 578.868 227.112H579.108ZM576.612 223.032V224.616H576.372V224.256C576.372 223.936 576.26 223.664 576.036 223.44C575.812 223.2 575.54 223.08 575.22 223.08V223.032H576.612ZM576.612 220.824V222.408H575.22V222.36C575.54 222.344 575.812 222.224 576.036 222C576.26 221.76 576.372 221.48 576.372 221.16V220.824H576.612ZM577.644 214.872V216.792H577.404V216.36C577.404 215.976 577.268 215.648 576.996 215.376C576.724 215.088 576.388 214.936 575.988 214.92V214.872H577.644ZM577.644 213.768V214.464L574.716 214.2C575.068 214.2 575.436 214.176 575.82 214.128C576.22 214.08 576.588 214.024 576.924 213.96C577.26 213.896 577.5 213.832 577.644 213.768ZM569.676 229.248V231H567.756V230.76C567.756 230.76 567.804 230.76 567.9 230.76C568.012 230.76 568.068 230.76 568.068 230.76C568.484 230.76 568.836 230.616 569.124 230.328C569.428 230.024 569.588 229.664 569.604 229.248H569.676ZM569.676 215.952H569.604C569.604 215.536 569.452 215.184 569.148 214.896C568.844 214.592 568.484 214.44 568.068 214.44C568.068 214.44 568.02 214.44 567.924 214.44C567.828 214.44 567.78 214.44 567.78 214.44L567.756 214.2H569.676V215.952ZM570.804 212.496L570.948 212.688L573.444 211.104L576.18 212.688L576.324 212.496L573.588 209.64H573.348L570.804 212.496ZM589.437 213.84L603.381 228.72L603.597 231.336L589.653 216.48L589.437 213.84ZM589.485 229.296V231H587.493V230.76C587.493 230.76 587.565 230.76 587.709 230.76C587.853 230.76 587.933 230.76 587.949 230.76C588.349 230.76 588.693 230.616 588.981 230.328C589.269 230.04 589.413 229.696 589.413 229.296H589.485ZM590.517 229.296C590.517 229.696 590.661 230.04 590.949 230.328C591.237 230.616 591.581 230.76 591.981 230.76C591.997 230.76 592.077 230.76 592.221 230.76C592.365 230.76 592.437 230.76 592.437 230.76V231H590.445V229.296H590.517ZM589.437 213.84L590.493 215.184L590.517 231H589.413V216.84C589.413 216.024 589.373 215.32 589.293 214.728C589.229 214.136 589.197 213.84 589.197 213.84H589.437ZM603.597 214.2V228.264C603.597 228.776 603.613 229.272 603.645 229.752C603.677 230.216 603.709 230.6 603.741 230.904C603.789 231.192 603.813 231.336 603.813 231.336H603.597L602.517 230.064V214.2H603.597ZM605.517 214.2V214.44C605.517 214.44 605.445 214.44 605.301 214.44C605.157 214.44 605.085 214.44 605.085 214.44C604.685 214.44 604.341 214.584 604.053 214.872C603.765 215.144 603.613 215.488 603.597 215.904H603.525V214.2H605.517ZM600.573 214.2H602.565V215.904H602.517C602.501 215.488 602.349 215.144 602.061 214.872C601.789 214.584 601.445 214.44 601.029 214.44C601.029 214.44 600.957 214.44 600.813 214.44C600.669 214.44 600.589 214.44 600.573 214.44V214.2ZM629.644 223.992L629.356 227.76C628.94 228.448 628.412 229.064 627.772 229.608C627.148 230.136 626.404 230.56 625.54 230.88C624.692 231.184 623.716 231.336 622.612 231.336C620.948 231.32 619.468 230.952 618.172 230.232C616.876 229.512 615.86 228.504 615.124 227.208C614.404 225.896 614.044 224.352 614.044 222.576C614.044 220.832 614.404 219.312 615.124 218.016C615.844 216.704 616.852 215.688 618.148 214.968C619.46 214.232 620.996 213.864 622.756 213.864C623.94 213.864 625.004 214.024 625.948 214.344C626.908 214.648 627.74 215.032 628.444 215.496L628.924 218.88H628.708C628.356 217.472 627.636 216.408 626.548 215.688C625.46 214.952 624.196 214.584 622.756 214.584C621.348 214.584 620.124 214.92 619.084 215.592C618.06 216.248 617.26 217.176 616.684 218.376C616.124 219.56 615.844 220.952 615.844 222.552C615.844 224.152 616.124 225.552 616.684 226.752C617.26 227.952 618.052 228.888 619.06 229.56C620.084 230.232 621.268 230.584 622.612 230.616C623.748 230.616 624.796 230.408 625.756 229.992C626.732 229.56 627.548 228.864 628.204 227.904C628.86 226.928 629.276 225.624 629.452 223.992H629.644ZM642.166 214.2V231H640.606V214.2H642.166ZM640.678 229.248V231H638.758V230.76C638.758 230.76 638.806 230.76 638.902 230.76C639.014 230.76 639.07 230.76 639.07 230.76C639.486 230.76 639.838 230.616 640.126 230.328C640.43 230.024 640.59 229.664 640.606 229.248H640.678ZM640.678 215.952H640.606C640.59 215.536 640.43 215.184 640.126 214.896C639.838 214.592 639.486 214.44 639.07 214.44C639.07 214.44 639.014 214.44 638.902 214.44C638.806 214.44 638.758 214.44 638.758 214.44V214.2H640.678V215.952ZM642.094 229.248H642.166C642.182 229.664 642.334 230.024 642.622 230.328C642.926 230.616 643.286 230.76 643.702 230.76C643.702 230.76 643.75 230.76 643.846 230.76C643.942 230.76 643.998 230.76 644.014 230.76V231H642.094V229.248ZM642.094 215.952V214.2H644.014V214.44C643.998 214.44 643.942 214.44 643.846 214.44C643.75 214.44 643.702 214.44 643.702 214.44C643.286 214.44 642.926 214.592 642.622 214.896C642.334 215.184 642.182 215.536 642.166 215.952H642.094ZM660.524 213.864L667.628 230.856H665.588L660.044 216.144L660.524 213.864ZM655.364 229.248C655.252 229.568 655.236 229.84 655.316 230.064C655.396 230.288 655.524 230.464 655.7 230.592C655.892 230.704 656.084 230.76 656.276 230.76H656.492V231H651.668V230.76C651.668 230.76 651.708 230.76 651.788 230.76C651.852 230.76 651.884 230.76 651.884 230.76C652.252 230.76 652.628 230.648 653.012 230.424C653.412 230.184 653.74 229.792 653.996 229.248H655.364ZM660.524 213.864L660.74 215.544L654.716 230.928H653.276L659.42 216.336C659.42 216.336 659.46 216.24 659.54 216.048C659.636 215.84 659.74 215.592 659.852 215.304C659.98 215.016 660.084 214.736 660.164 214.464C660.26 214.192 660.308 213.992 660.308 213.864H660.524ZM663.908 224.448V225.168H656.396V224.448H663.908ZM664.988 229.248H666.956C667.196 229.792 667.516 230.184 667.916 230.424C668.316 230.648 668.7 230.76 669.068 230.76C669.068 230.76 669.1 230.76 669.164 230.76C669.228 230.76 669.26 230.76 669.26 230.76V231H663.86V230.76H664.076C664.38 230.76 664.652 230.632 664.892 230.376C665.132 230.104 665.164 229.728 664.988 229.248ZM681.498 213.864C681.754 213.864 682.026 213.88 682.314 213.912C682.618 213.944 682.906 213.992 683.178 214.056C683.466 214.104 683.722 214.16 683.946 214.224C684.186 214.272 684.37 214.328 684.498 214.392V217.056H684.282C684.282 216.288 684.018 215.688 683.49 215.256C682.962 214.808 682.322 214.584 681.57 214.584C680.69 214.584 679.978 214.864 679.434 215.424C678.89 215.968 678.618 216.608 678.618 217.344C678.618 217.648 678.682 218.008 678.81 218.424C678.954 218.824 679.21 219.2 679.578 219.552L684.306 223.92C684.786 224.368 685.106 224.848 685.266 225.36C685.426 225.872 685.506 226.368 685.506 226.848C685.506 228.176 685.098 229.256 684.282 230.088C683.482 230.92 682.394 231.336 681.018 231.336C680.634 231.336 680.178 231.296 679.65 231.216C679.138 231.136 678.634 231 678.138 230.808C677.658 230.6 677.258 230.336 676.938 230.016C676.89 229.76 676.866 229.44 676.866 229.056C676.866 228.672 676.898 228.272 676.962 227.856C677.026 227.424 677.114 227.032 677.226 226.68H677.442C677.362 227.496 677.466 228.208 677.754 228.816C678.042 229.424 678.458 229.888 679.002 230.208C679.562 230.512 680.194 230.648 680.898 230.616C681.778 230.568 682.53 230.264 683.154 229.704C683.794 229.128 684.114 228.36 684.114 227.4C684.114 226.936 684.034 226.52 683.874 226.152C683.714 225.768 683.482 225.44 683.178 225.168L678.57 220.896C678.09 220.448 677.754 219.96 677.562 219.432C677.37 218.888 677.274 218.384 677.274 217.92C677.274 217.248 677.434 216.6 677.754 215.976C678.074 215.352 678.546 214.848 679.17 214.464C679.81 214.064 680.586 213.864 681.498 213.864ZM684.498 214.104V214.608H682.674V214.104H684.498Z" fill="black"/>
<path d="M80.4375 166.906C107.25 166.906 134.062 166.906 160.875 166.906C160.875 167.245 160.875 167.583 160.875 167.922C160.875 168.261 160.875 168.599 160.875 168.938C134.062 168.938 107.25 168.938 80.4375 168.938C53.625 168.938 26.8125 168.938 0 168.938C0 168.599 0 168.261 0 167.922C0 167.583 0 167.245 0 166.906C26.8125 166.906 53.625 166.906 80.4375 166.906Z" fill="#B1A292"/>
<path d="M611.203 166.906C637 166.906 662.797 166.906 688.594 166.906C688.594 167.245 688.594 167.583 688.594 167.922C688.594 168.261 688.594 168.599 688.594 168.938C662.797 168.938 637 168.938 611.203 168.938C585.406 168.938 559.609 168.938 533.812 168.938C533.812 168.599 533.812 168.261 533.812 167.922C533.812 167.583 533.812 167.245 533.812 166.906C559.609 166.906 585.406 166.906 611.203 166.906Z" fill="#B9AA9C"/>
<path d="M224.719 163.906C224.469 163.031 224.219 162.281 223.969 161.656C223.719 161 223.453 160.422 223.172 159.922C222.922 159.391 222.625 158.922 222.281 158.516C221.969 158.109 221.594 157.688 221.156 157.25C220.094 156.156 218.875 155.344 217.5 154.812C216.156 154.25 214.719 153.969 213.187 153.969C211.25 153.969 209.484 154.344 207.891 155.094C206.328 155.844 204.984 156.922 203.859 158.328C202.766 159.703 201.922 161.375 201.328 163.344C200.734 165.312 200.437 167.5 200.437 169.906C200.437 173.031 200.859 175.766 201.703 178.109C202.547 180.453 203.75 182.281 205.312 183.594C207.656 185.469 210.453 186.406 213.703 186.406C215.922 186.406 217.969 185.984 219.844 185.141C221.719 184.297 223.656 182.922 225.656 181.016L226.594 181.953C224.969 184.109 222.891 185.781 220.359 186.969C217.859 188.156 215.078 188.75 212.016 188.75C209.359 188.75 206.937 188.312 204.75 187.438C202.562 186.562 200.687 185.344 199.125 183.781C197.562 182.188 196.344 180.281 195.469 178.062C194.625 175.844 194.203 173.375 194.203 170.656C194.203 167.562 194.734 164.781 195.797 162.312C196.859 159.812 198.422 157.719 200.484 156.031C202.109 154.719 203.937 153.703 205.969 152.984C208 152.234 210.047 151.859 212.109 151.859C214.766 151.859 217.391 152.297 219.984 153.172C220.859 153.484 221.562 153.641 222.094 153.641C222.625 153.641 223.078 153.484 223.453 153.172C223.859 152.859 224.141 152.422 224.297 151.859H225.422L225.937 163.906H224.719ZM303.696 151.859C306.227 151.859 308.633 152.391 310.914 153.453C313.227 154.516 315.18 155.984 316.774 157.859C318.086 159.453 319.102 161.312 319.821 163.438C320.539 165.562 320.899 167.844 320.899 170.281C320.899 173 320.461 175.5 319.586 177.781C318.742 180.031 317.539 181.969 315.977 183.594C314.446 185.219 312.602 186.484 310.446 187.391C308.321 188.297 305.977 188.75 303.414 188.75C300.821 188.75 298.446 188.297 296.289 187.391C294.133 186.484 292.289 185.219 290.758 183.594C289.227 181.938 288.039 179.969 287.196 177.688C286.352 175.406 285.93 172.891 285.93 170.141C285.93 167.453 286.367 164.984 287.242 162.734C288.117 160.484 289.336 158.562 290.899 156.969C292.461 155.344 294.321 154.094 296.477 153.219C298.664 152.312 301.071 151.859 303.696 151.859ZM303.227 153.734C301.758 153.734 300.352 154.078 299.008 154.766C297.664 155.422 296.492 156.344 295.492 157.531C294.961 158.156 294.477 158.938 294.039 159.875C293.633 160.812 293.274 161.844 292.961 162.969C292.649 164.062 292.414 165.234 292.258 166.484C292.102 167.734 292.024 168.984 292.024 170.234C292.024 173.453 292.446 176.312 293.289 178.812C294.133 181.312 295.305 183.188 296.805 184.438C298.68 186.031 300.899 186.828 303.461 186.828C304.805 186.828 306.071 186.578 307.258 186.078C308.477 185.578 309.539 184.875 310.446 183.969C313.352 181.125 314.805 176.469 314.805 170C314.805 166.906 314.367 164.156 313.492 161.75C312.649 159.344 311.461 157.484 309.93 156.172C307.961 154.547 305.727 153.734 303.227 153.734ZM413.657 188H405.032L392.282 171.5L389.329 171.641V182.234C389.329 183.172 389.376 183.938 389.469 184.531C389.594 185.125 389.829 185.609 390.172 185.984C390.516 186.328 391.001 186.578 391.626 186.734C392.251 186.859 393.079 186.953 394.11 187.016V188H379.297V187.016C380.297 186.922 381.094 186.797 381.688 186.641C382.313 186.484 382.782 186.219 383.094 185.844C383.407 185.469 383.61 184.953 383.704 184.297C383.797 183.609 383.844 182.703 383.844 181.578V158.422C383.844 157.484 383.797 156.734 383.704 156.172C383.61 155.578 383.407 155.109 383.094 154.766C382.782 154.422 382.313 154.172 381.688 154.016C381.094 153.859 380.297 153.734 379.297 153.641V152.562H394.063C396.688 152.562 399.032 152.922 401.094 153.641C403.188 154.328 404.735 155.266 405.735 156.453C406.391 157.172 406.876 158.016 407.188 158.984C407.501 159.922 407.657 160.938 407.657 162.031C407.657 164.469 406.891 166.391 405.36 167.797C403.86 169.203 401.407 170.25 398.001 170.938L409.016 184.531C409.766 185.406 410.469 186.016 411.126 186.359C411.813 186.703 412.657 186.922 413.657 187.016V188ZM389.329 169.672C390.579 169.641 391.657 169.594 392.563 169.531C393.501 169.469 394.313 169.375 395.001 169.25C395.719 169.094 396.376 168.906 396.969 168.688C397.563 168.469 398.172 168.188 398.797 167.844C399.766 167.312 400.516 166.531 401.047 165.5C401.579 164.438 401.844 163.234 401.844 161.891C401.844 159.359 401.047 157.516 399.454 156.359C397.891 155.172 395.391 154.578 391.954 154.578C390.891 154.578 390.188 154.719 389.844 155C389.501 155.25 389.329 155.75 389.329 156.5V169.672ZM499.29 188H470.415V187.016C471.384 186.953 472.165 186.844 472.759 186.688C473.384 186.531 473.852 186.281 474.165 185.938C474.509 185.594 474.743 185.125 474.868 184.531C474.993 183.938 475.056 183.172 475.056 182.234V158.422C475.056 157.484 474.993 156.719 474.868 156.125C474.774 155.531 474.556 155.062 474.212 154.719C473.868 154.375 473.384 154.125 472.759 153.969C472.165 153.812 471.384 153.703 470.415 153.641V152.562H498.821L498.915 160.25H497.649C497.399 159.031 497.118 158.062 496.806 157.344C496.493 156.594 496.04 156.016 495.446 155.609C494.884 155.203 494.118 154.938 493.149 154.812C492.212 154.688 490.993 154.625 489.493 154.625H482.274C481.556 154.625 481.071 154.734 480.821 154.953C480.602 155.172 480.493 155.672 480.493 156.453V168.312H488.696C489.79 168.312 490.681 168.25 491.368 168.125C492.056 168 492.602 167.766 493.009 167.422C493.446 167.047 493.774 166.531 493.993 165.875C494.212 165.219 494.415 164.344 494.602 163.25H495.868V175.672H494.602C494.415 174.547 494.212 173.656 493.993 173C493.774 172.312 493.462 171.797 493.056 171.453C492.649 171.078 492.102 170.828 491.415 170.703C490.727 170.578 489.821 170.516 488.696 170.516H480.493V183.734C480.493 184.266 480.524 184.656 480.587 184.906C480.649 185.156 480.759 185.344 480.915 185.469C481.165 185.625 481.759 185.766 482.696 185.891C483.665 185.984 484.806 186.031 486.118 186.031H487.618C489.524 186.031 491.118 185.938 492.399 185.75C493.712 185.562 494.821 185.203 495.727 184.672C496.665 184.141 497.477 183.422 498.165 182.516C498.852 181.609 499.524 180.422 500.181 178.953H501.727L499.29 188Z" fill="#A11C12"/>
<path d="M31.626 14.4V111H22.656V14.4H31.626ZM68.886 106.722V111H31.212V106.722H68.886ZM77.304 88.644L69.3 111H46.392L51.36 106.722C56.236 106.722 60.192 105.986 63.228 104.514C66.356 102.95 68.886 100.788 70.818 98.028C72.75 95.268 74.452 92.14 75.924 88.644H77.304ZM23.07 100.926V111H12.03V109.62C12.03 109.62 12.306 109.62 12.858 109.62C13.502 109.62 13.824 109.62 13.824 109.62C16.216 109.62 18.24 108.792 19.896 107.136C21.644 105.388 22.564 103.318 22.656 100.926H23.07ZM23.07 24.474H22.656C22.564 22.082 21.644 20.058 19.896 18.402C18.24 16.654 16.216 15.78 13.824 15.78C13.824 15.78 13.502 15.78 12.858 15.78C12.306 15.78 12.03 15.78 12.03 15.78V14.4H23.07V24.474ZM31.212 24.474V14.4H42.252V15.78C42.16 15.78 41.838 15.78 41.286 15.78C40.734 15.78 40.458 15.78 40.458 15.78C38.066 15.78 35.996 16.654 34.248 18.402C32.592 20.058 31.718 22.082 31.626 24.474H31.212ZM160.915 14.4V111H151.945V14.4H160.915ZM152.359 100.926V111H141.319V109.62C141.319 109.62 141.595 109.62 142.147 109.62C142.791 109.62 143.113 109.62 143.113 109.62C145.505 109.62 147.529 108.792 149.185 107.136C150.933 105.388 151.853 103.318 151.945 100.926H152.359ZM152.359 24.474H151.945C151.853 22.082 150.933 20.058 149.185 18.402C147.529 16.654 145.505 15.78 143.113 15.78C143.113 15.78 142.791 15.78 142.147 15.78C141.595 15.78 141.319 15.78 141.319 15.78V14.4H152.359V24.474ZM160.501 100.926H160.915C161.007 103.318 161.881 105.388 163.537 107.136C165.285 108.792 167.355 109.62 169.747 109.62C169.747 109.62 170.023 109.62 170.575 109.62C171.127 109.62 171.449 109.62 171.541 109.62V111H160.501V100.926ZM160.501 24.474V14.4H171.541V15.78C171.449 15.78 171.127 15.78 170.575 15.78C170.023 15.78 169.747 15.78 169.747 15.78C167.355 15.78 165.285 16.654 163.537 18.402C161.881 20.058 161.007 22.082 160.915 24.474H160.501ZM250.876 12.33L331.054 97.89L332.296 112.932L252.118 27.51L250.876 12.33ZM251.152 101.202V111H239.698V109.62C239.698 109.62 240.112 109.62 240.94 109.62C241.768 109.62 242.228 109.62 242.32 109.62C244.62 109.62 246.598 108.792 248.254 107.136C249.91 105.48 250.738 103.502 250.738 101.202H251.152ZM257.086 101.202C257.086 103.502 257.914 105.48 259.57 107.136C261.226 108.792 263.204 109.62 265.504 109.62C265.596 109.62 266.056 109.62 266.884 109.62C267.712 109.62 268.126 109.62 268.126 109.62V111H256.672V101.202H257.086ZM250.876 12.33L256.948 20.058L257.086 111H250.738V29.58C250.738 24.888 250.508 20.84 250.048 17.436C249.68 14.032 249.496 12.33 249.496 12.33H250.876ZM332.296 14.4V95.268C332.296 98.212 332.388 101.064 332.572 103.824C332.756 106.492 332.94 108.7 333.124 110.448C333.4 112.104 333.538 112.932 333.538 112.932H332.296L326.086 105.618V14.4H332.296ZM343.336 14.4V15.78C343.336 15.78 342.922 15.78 342.094 15.78C341.266 15.78 340.852 15.78 340.852 15.78C338.552 15.78 336.574 16.608 334.918 18.264C333.262 19.828 332.388 21.806 332.296 24.198H331.882V14.4H343.336ZM314.908 14.4H326.362V24.198H326.086C325.994 21.806 325.12 19.828 323.464 18.264C321.9 16.608 319.922 15.78 317.53 15.78C317.53 15.78 317.116 15.78 316.288 15.78C315.46 15.78 315 15.78 314.908 15.78V14.4ZM428.733 14.4V75.12C428.733 81.744 429.929 87.586 432.321 92.646C434.805 97.706 438.255 101.662 442.671 104.514C447.087 107.274 452.193 108.654 457.989 108.654C464.153 108.654 469.535 107.32 474.135 104.652C478.735 101.984 482.323 98.304 484.899 93.612C487.475 88.828 488.763 83.262 488.763 76.914V14.4H495.249V76.914C495.249 84.09 493.685 90.392 490.557 95.82C487.521 101.156 483.197 105.342 477.585 108.378C471.973 111.414 465.441 112.932 457.989 112.932C450.353 112.932 443.637 111.46 437.841 108.516C432.137 105.48 427.675 101.294 424.455 95.958C421.327 90.53 419.763 84.228 419.763 77.052V14.4H428.733ZM420.177 14.4V22.68H419.763C419.763 20.656 419.027 19 417.555 17.712C416.175 16.424 414.473 15.78 412.449 15.78C412.449 15.78 412.081 15.78 411.345 15.78C410.609 15.78 410.241 15.78 410.241 15.78V14.4H420.177ZM438.255 14.4V15.78C438.255 15.78 437.887 15.78 437.151 15.78C436.415 15.78 436.047 15.78 436.047 15.78C434.023 15.78 432.275 16.424 430.803 17.712C429.423 19 428.733 20.656 428.733 22.68H428.457V14.4H438.255ZM489.177 14.4V22.68H488.763C488.763 20.656 488.027 19 486.555 17.712C485.175 16.424 483.473 15.78 481.449 15.78C481.449 15.78 481.081 15.78 480.345 15.78C479.609 15.78 479.241 15.78 479.241 15.78V14.4H489.177ZM504.771 14.4V15.78C504.771 15.78 504.403 15.78 503.667 15.78C502.931 15.78 502.563 15.78 502.563 15.78C500.539 15.78 498.791 16.424 497.319 17.712C495.939 19 495.249 20.656 495.249 22.68H494.973V14.4H504.771ZM665.075 12.468L666.179 21.714L631.541 98.856C631.541 98.856 631.173 99.638 630.437 101.202C629.793 102.766 629.103 104.652 628.367 106.86C627.631 108.976 627.125 111 626.849 112.932H625.469L623.537 104.238L665.075 12.468ZM580.205 100.926V111H564.887V109.62C564.979 109.62 565.347 109.62 565.991 109.62C566.727 109.62 567.095 109.62 567.095 109.62C569.579 109.62 571.787 108.884 573.719 107.412C575.651 105.848 576.801 103.686 577.169 100.926H580.205ZM584.207 103.134C584.207 103.226 584.207 103.318 584.207 103.41C584.207 103.502 584.207 103.64 584.207 103.824C584.207 105.296 584.713 106.676 585.725 107.964C586.829 109.16 588.117 109.758 589.589 109.758H591.659V111H583.241V103.134H584.207ZM587.519 12.468H588.899L591.659 20.61L583.517 111H576.065L587.519 12.468ZM588.899 12.468L628.643 98.442L625.469 112.932L586.277 27.924L588.899 12.468ZM666.317 12.468L678.185 111H667.421L659.831 27.372L665.075 12.468H666.317ZM674.045 100.926H676.943C677.403 103.686 678.599 105.848 680.531 107.412C682.463 108.884 684.625 109.62 687.017 109.62C687.017 109.62 687.385 109.62 688.121 109.62C688.857 109.62 689.225 109.62 689.225 109.62V111H674.045V100.926ZM666.731 103.134H667.697V111H659.279V109.758H661.349C662.913 109.758 664.201 109.16 665.213 107.964C666.225 106.676 666.731 105.296 666.731 103.824C666.731 103.64 666.731 103.502 666.731 103.41C666.731 103.318 666.731 103.226 666.731 103.134Z" fill="black"/>
</svg>
